<svg
  id="visual"
  viewBox="0 0 900 675"
  width="900"
  height="675"
  xmlns="http://www.w3.org/2000/svg"
  xmlns:xlink="http://www.w3.org/1999/xlink"
  version="1.1"
><rect x="0" y="0" width="900" height="675" fill="#F1EDEB" /><defs
  ><linearGradient id="grad1_0" x1="25%" y1="0%" x2="100%" y2="100%"><stop
        offset="23.333333333333336%"
        stop-color="#6f4e37"
        stop-opacity="1"
      /><stop
        offset="76.66666666666666%"
        stop-color="#6f4e37"
        stop-opacity="1"
      /></linearGradient></defs><defs><linearGradient
      id="grad1_1"
      x1="25%"
      y1="0%"
      x2="100%"
      y2="100%"
    ><stop
        offset="23.333333333333336%"
        stop-color="#6f4e37"
        stop-opacity="1"
      /><stop
        offset="76.66666666666666%"
        stop-color="#b09a8c"
        stop-opacity="1"
      /></linearGradient></defs><defs><linearGradient
      id="grad1_2"
      x1="25%"
      y1="0%"
      x2="100%"
      y2="100%"
    ><stop
        offset="23.333333333333336%"
        stop-color="#f1edeb"
        stop-opacity="1"
      /><stop
        offset="76.66666666666666%"
        stop-color="#b09a8c"
        stop-opacity="1"
      /></linearGradient></defs><defs><linearGradient
      id="grad2_0"
      x1="0%"
      y1="0%"
      x2="75%"
      y2="100%"
    ><stop
        offset="23.333333333333336%"
        stop-color="#6f4e37"
        stop-opacity="1"
      /><stop
        offset="76.66666666666666%"
        stop-color="#6f4e37"
        stop-opacity="1"
      /></linearGradient></defs><defs><linearGradient
      id="grad2_1"
      x1="0%"
      y1="0%"
      x2="75%"
      y2="100%"
    ><stop
        offset="23.333333333333336%"
        stop-color="#b09a8c"
        stop-opacity="1"
      /><stop
        offset="76.66666666666666%"
        stop-color="#6f4e37"
        stop-opacity="1"
      /></linearGradient></defs><defs><linearGradient
      id="grad2_2"
      x1="0%"
      y1="0%"
      x2="75%"
      y2="100%"
    ><stop
        offset="23.333333333333336%"
        stop-color="#b09a8c"
        stop-opacity="1"
      /><stop
        offset="76.66666666666666%"
        stop-color="#f1edeb"
        stop-opacity="1"
      /></linearGradient></defs><g transform="translate(900, 0)"><path
      d="M0 421.9C-58.6 419.5 -117.3 417.2 -161.4 389.8C-205.6 362.4 -235.4 309.9 -267.3 267.3C-299.2 224.6 -333.3 191.8 -359.4 148.9C-385.5 105.9 -403.7 53 -421.9 0L0 0Z"
      fill="#d1c2bb"
    /><path
      d="M0 281.3C-39.1 279.7 -78.2 278.1 -107.6 259.8C-137.1 241.6 -156.9 206.6 -178.2 178.2C-199.5 149.8 -222.2 127.9 -239.6 99.2C-257 70.6 -269.1 35.3 -281.2 0L0 0Z"
      fill="#907360"
    /><path
      d="M0 140.6C-19.5 139.8 -39.1 139.1 -53.8 129.9C-68.5 120.8 -78.5 103.3 -89.1 89.1C-99.7 74.9 -111.1 63.9 -119.8 49.6C-128.5 35.3 -134.6 17.7 -140.6 0L0 0Z"
      fill="#6f4e37"
    /></g><g transform="translate(0, 675)"><path
      d="M0 -421.9C52 -402.7 103.9 -383.5 148.9 -359.4C193.8 -335.3 231.7 -306.3 274.4 -274.4C317 -242.4 364.4 -207.7 389.8 -161.4C415.1 -115.2 418.5 -57.6 421.9 0L0 0Z"
      fill="#d1c2bb"
    /><path
      d="M0 -281.2C34.6 -268.5 69.3 -255.7 99.2 -239.6C129.2 -223.5 154.5 -204.2 182.9 -182.9C211.3 -161.6 242.9 -138.4 259.8 -107.6C276.8 -76.8 279 -38.4 281.3 0L0 0Z"
      fill="#907360"
    /><path
      d="M0 -140.6C17.3 -134.2 34.6 -127.8 49.6 -119.8C64.6 -111.8 77.2 -102.1 91.5 -91.5C105.7 -80.8 121.5 -69.2 129.9 -53.8C138.4 -38.4 139.5 -19.2 140.6 0L0 0Z"
      fill="#6f4e37"
    /></g></svg>
