<svg
  id="brew-network"
  enable-background="new 0 0 300 300"
  height="512"
  viewBox="0 0 300 300"
  width="512"
  xmlns="http://www.w3.org/2000/svg"
><g><circle cx="178" cy="131.002" fill="#F1EDEB" r="86" /><g
      fill="#4c241d"
    ><path
        d="m218.004 43c-1.023 0-2.047-.391-2.828-1.17-1.562-1.562-1.562-4.096 0-5.658l4-4.002c1.562-1.562 4.094-1.561 5.656-.002 1.562 1.562 1.562 4.096 0 5.658l-4 4.002c-.781.781-1.805 1.172-2.828 1.172z"
      /><path
        d="m201.996 59.006c-1.023 0-2.047-.391-2.828-1.17-1.562-1.562-1.562-4.096 0-5.658l4-4.002c1.562-1.562 4.094-1.561 5.656-.002 1.562 1.562 1.562 4.096 0 5.658l-4 4.002c-.781.781-1.804 1.172-2.828 1.172z"
      /><path
        d="m205.996 43c-1.023 0-2.047-.391-2.828-1.172l-4-4.002c-1.562-1.562-1.562-4.096 0-5.658 1.562-1.559 4.094-1.561 5.656.002l4 4.002c1.562 1.562 1.562 4.096 0 5.658-.781.779-1.804 1.17-2.828 1.17z"
      /><path
        d="m222.004 59.006c-1.023 0-2.047-.391-2.828-1.172l-4-4.002c-1.562-1.562-1.562-4.096 0-5.658 1.562-1.559 4.094-1.561 5.656.002l4 4.002c1.562 1.562 1.562 4.096 0 5.658-.781.779-1.805 1.17-2.828 1.17z"
      /><path
        d="m78 209.002c-7.719 0-14-6.281-14-14s6.281-14 14-14 14 6.281 14 14-6.281 14-14 14zm0-20c-3.309 0-6 2.691-6 6s2.691 6 6 6 6-2.691 6-6-2.691-6-6-6z"
      /><circle cx="88" cy="157.002" r="4" /><circle
        cx="56"
        cy="133.002"
        r="4"
      /><path
        d="m256 105.002c-1.023 0-2.047-.391-2.828-1.172l-12-12c-1.562-1.562-1.562-4.094 0-5.656s4.094-1.562 5.656 0l12 12c1.562 1.562 1.562 4.094 0 5.656-.781.781-1.805 1.172-2.828 1.172z"
      /><path
        d="m244 105.002c-1.023 0-2.047-.391-2.828-1.172-1.562-1.562-1.562-4.094 0-5.656l12-12c1.562-1.562 4.094-1.562 5.656 0s1.562 4.094 0 5.656l-12 12c-.781.781-1.805 1.172-2.828 1.172z"
      /></g><g><path d="m116 161.002h92v88h-92z" fill="#6b4f5b" /><path
        d="m208 253.002h-92c-2.211 0-4-1.791-4-4v-88c0-2.209 1.789-4 4-4h92c2.211 0 4 1.791 4 4v88c0 2.209-1.789 4-4 4zm-88-8h84v-80h-84z"
        fill="#4c241d"
      /></g><g><path
        d="m248 221.002h-16v-8c0-9.121-6.879-16-16-16h-8v-16h8c17.945 0 32 14.057 32 32z"
        fill="#e66353"
      /><path
        d="m248 225.002h-16c-2.211 0-4-1.791-4-4v-8c0-6.953-5.047-12-12-12h-8c-2.211 0-4-1.791-4-4v-16c0-2.209 1.789-4 4-4h8c20.188 0 36 15.812 36 36v8c0 2.209-1.789 4-4 4zm-12-8h8v-4c0-15.701-12.301-28-28-28h-4v8h4c11.402 0 20 8.598 20 20z"
        fill="#4c241d"
      /></g><g><path
        d="m209.05 161.002h-94.1c-1.629 0-2.95-1.321-2.95-2.95v-10.101c0-1.629 1.321-2.95 2.95-2.95h94.101c1.629 0 2.95 1.321 2.95 2.95v10.101c-.001 1.629-1.322 2.95-2.951 2.95z"
        fill="#bf7e68"
      /><path
        d="m209.051 165.002h-94.102c-3.832 0-6.949-3.117-6.949-6.949v-10.102c0-3.832 3.117-6.949 6.949-6.949h94.102c3.832 0 6.949 3.117 6.949 6.949v10.102c0 3.832-3.117 6.949-6.949 6.949zm-93.051-8h92v-8h-92z"
        fill="#4c241d"
      /></g><g><path
        d="m209.05 265.002h-94.1c-1.629 0-2.95-1.321-2.95-2.95v-10.101c0-1.629 1.321-2.95 2.95-2.95h94.101c1.629 0 2.95 1.321 2.95 2.95v10.101c-.001 1.629-1.322 2.95-2.951 2.95z"
        fill="#bf7e68"
      /><path
        d="m209.051 269.002h-94.102c-3.832 0-6.949-3.117-6.949-6.949v-10.102c0-3.832 3.117-6.949 6.949-6.949h94.102c3.832 0 6.949 3.117 6.949 6.949v10.102c0 3.832-3.117 6.949-6.949 6.949zm-93.051-8h92v-8h-92z"
        fill="#4c241d"
      /></g><g><path
        d="m192 113.002h-20v-20h-20v20h-20l-16 32h92z"
        fill="#6b4f5b"
      /><path
        d="m208 149.002h-92c-1.387 0-2.672-.719-3.402-1.896-.73-1.18-.797-2.652-.176-3.893l16-32c.68-1.355 2.062-2.211 3.578-2.211h16v-16c0-2.209 1.789-4 4-4h20c2.211 0 4 1.791 4 4v16h16c1.516 0 2.898.855 3.578 2.211l16 32c.621 1.24.555 2.713-.176 3.893-.73 1.177-2.015 1.896-3.402 1.896zm-85.527-8h79.055l-12-24h-17.528c-2.211 0-4-1.791-4-4v-16h-12v16c0 2.209-1.789 4-4 4h-17.527z"
        fill="#4c241d"
      /></g><g><path
        d="m40 101.002h24.734c1.801 0 3.266-1.465 3.266-3.266v-37.469c0-10.623 8.641-19.266 19.266-19.266h63.469c10.625 0 19.266 8.643 19.266 19.266v36.734h-16v-36.734c0-1.801-1.465-3.266-3.266-3.266h-63.469c-1.801 0-3.266 1.465-3.266 3.266v37.469c0 10.623-8.641 19.266-19.266 19.266h-24.734"
        fill="#6F4E37"
      /><path
        d="m64.734 121.002h-24.734c-2.211 0-4-1.791-4-4s1.789-4 4-4h24.734c8.418 0 15.266-6.848 15.266-15.266v-37.469c0-4.006 3.258-7.266 7.266-7.266h63.469c4.008 0 7.266 3.26 7.266 7.266v32.734h8v-32.734c0-8.418-6.848-15.266-15.266-15.266h-63.469c-8.418.001-15.266 6.848-15.266 15.266v37.469c0 4.006-3.258 7.266-7.266 7.266h-24.734c-2.211 0-4-1.791-4-4s1.789-4 4-4h24v-36.735c0-12.828 10.438-23.266 23.266-23.266h63.469c12.828 0 23.266 10.438 23.266 23.266v36.734c0 2.209-1.789 4-4 4h-16c-2.211 0-4-1.791-4-4v-36h-62.001v36.734c0 12.829-10.438 23.267-23.266 23.267z"
        fill="#4c241d"
      /></g><g><path d="m148 81.002h28v16h-28z" fill="#fc8c29" /><path
        d="m176 101.002h-28c-2.211 0-4-1.791-4-4v-16c0-2.209 1.789-4 4-4h28c2.211 0 4 1.791 4 4v16c0 2.209-1.789 4-4 4zm-24-8h20v-8h-20z"
        fill="#4c241d"
      /></g></g></svg>
