<?xml version="1.0" standalone="no"?>
<!DOCTYPE svg PUBLIC "-//W3C//DTD SVG 20010904//EN"
 "http://www.w3.org/TR/2001/REC-SVG-20010904/DTD/svg10.dtd">
<svg version="1.0" xmlns="http://www.w3.org/2000/svg"
 width="500.000000pt" height="463.000000pt" viewBox="0 0 500.000000 463.000000"
 preserveAspectRatio="xMidYMid meet">
<metadata>
Created by potrace 1.16, written by Peter Selinger 2001-2019
</metadata>
<g transform="translate(0.000000,463.000000) scale(0.100000,-0.100000)"
fill="#6F4E37" stroke="none">
<path d="M3590 3513 c-80 -12 -174 -40 -240 -70 -89 -40 -112 -60 -104 -85 4
-14 -8 -33 -41 -69 -100 -107 -131 -233 -123 -494 l5 -151 -166 -67 c-91 -37
-177 -67 -191 -67 -34 0 -502 -165 -860 -303 -233 -90 -300 -108 -530 -142
-401 -59 -526 -97 -702 -216 -163 -111 -227 -189 -228 -275 -1 -156 138 -422
237 -455 48 -15 278 -6 354 15 150 42 312 130 501 273 148 113 293 199 466
278 129 58 593 280 816 390 64 32 105 58 111 72 6 15 53 43 148 87 76 37 142
66 147 66 18 0 70 -53 70 -71 0 -50 56 -118 97 -119 17 0 27 -14 51 -72 17
-40 42 -112 57 -160 33 -111 50 -133 103 -133 50 0 106 42 142 106 21 36 25
56 24 114 -1 39 -9 94 -18 124 -9 30 -16 60 -16 66 0 15 125 43 254 55 187 19
329 78 446 187 64 59 99 111 125 182 30 87 59 255 59 356 1 89 -2 106 -27 159
-96 205 -303 333 -617 381 -52 8 -121 15 -153 15 -42 0 -59 4 -63 15 -6 15
-69 19 -134 8z m462 -106 c137 -36 258 -97 330 -168 69 -67 99 -129 104 -213
l4 -61 -18 65 c-31 114 -81 180 -187 250 -246 160 -700 175 -930 29 -26 -16
-49 -28 -51 -26 -6 6 68 63 111 84 114 57 200 73 385 69 126 -3 173 -9 252
-29z m-432 -47 c-13 -23 10 -138 30 -150 8 -5 -10 -14 -46 -25 -90 -26 -162
-65 -223 -120 -31 -27 -50 -42 -42 -32 10 12 12 32 7 72 -10 91 -39 130 -75
103 -9 -7 0 5 19 26 43 46 150 99 250 125 94 25 93 25 80 1z m520 -33 c91 -35
177 -87 223 -135 28 -29 28 -30 8 -37 -26 -8 -83 -121 -75 -149 4 -15 -9 -7
-42 26 -59 56 -148 111 -218 134 -66 22 -72 25 -53 35 20 12 50 103 44 135 -6
32 8 31 113 -9z m-915 -79 c-42 -64 -59 -138 -53 -232 6 -91 33 -151 98 -221
158 -166 607 -262 890 -189 100 25 204 77 259 129 106 99 133 222 79 353 -33
80 -10 63 28 -21 55 -121 33 -263 -57 -361 -74 -81 -238 -156 -374 -170 -56
-6 -63 -9 105 41 93 27 208 83 237 115 10 11 -6 4 -36 -16 -168 -110 -448
-153 -684 -105 -189 38 -333 95 -437 172 -30 23 -48 33 -41 23 25 -30 136
-105 195 -131 30 -13 106 -38 167 -54 61 -17 114 -33 117 -35 9 -9 -72 7 -155
30 -203 58 -356 167 -410 292 -38 89 -35 214 6 308 16 35 85 124 97 124 2 0
-11 -24 -31 -52z m484 -73 c-76 -20 -79 -25 -59 -97 14 -49 44 -58 191 -58
131 0 143 5 155 65 8 44 -5 61 -65 80 l-46 15 40 -6 c100 -15 220 -73 298
-143 l55 -51 -27 -29 c-15 -16 -35 -47 -45 -69 -17 -38 -17 -40 2 -78 11 -22
22 -55 26 -74 5 -27 1 -22 -15 20 -28 69 -122 166 -199 203 -168 82 -391 69
-547 -32 -33 -21 -73 -57 -89 -80 -16 -22 -33 -41 -38 -41 -5 0 -1 10 8 23 9
12 25 41 36 63 19 39 19 44 4 79 -12 30 -19 36 -37 32 -41 -11 90 100 155 132
35 16 95 36 133 44 85 19 127 20 64 2z m-425 -543 c2 -4 -18 -34 -45 -66 -53
-62 -58 -79 -32 -108 23 -26 37 -23 72 17 17 19 33 35 36 35 3 0 5 -26 5 -59
l0 -58 -92 -41 c-51 -22 -149 -68 -218 -101 -69 -33 -128 -57 -132 -53 -3 4
-8 16 -10 26 -2 16 23 30 162 87 143 58 165 70 168 91 2 15 -6 32 -23 48 -30
28 -19 32 -217 -63 -108 -52 -138 -62 -142 -51 -4 11 12 23 57 43 166 76 255
120 260 128 3 5 -7 29 -23 53 -21 32 -26 46 -17 52 11 7 57 -36 57 -53 0 -4 6
-9 14 -12 8 -3 29 13 52 43 37 47 57 59 68 42z m1142 -29 c7 -10 14 -23 14
-29 0 -20 -160 -92 -250 -114 -47 -11 -117 -20 -157 -20 -67 0 -73 2 -92 28
l-20 28 119 12 c126 13 209 35 300 81 68 35 70 35 86 14z m-849 -53 c40 -10
110 -24 155 -30 167 -23 148 -13 148 -79 0 -55 2 -60 34 -85 24 -18 47 -26 73
-26 64 0 222 29 300 55 40 14 76 25 80 25 16 0 -79 -66 -139 -96 -117 -59
-204 -78 -358 -78 -148 -1 -216 13 -345 66 -98 41 -115 63 -115 144 0 73 11
101 43 114 32 13 44 12 124 -10z m-170 -217 c45 -21 82 -41 83 -45 0 -4 -16
-10 -36 -14 -33 -6 -35 -8 -28 -38 3 -17 8 -34 10 -37 2 -4 45 4 96 16 93 24
108 24 108 1 0 -9 -33 -22 -90 -36 -52 -13 -90 -27 -90 -34 0 -15 49 -138 59
-148 4 -4 43 3 86 17 44 14 83 25 88 25 12 0 7 -133 -6 -164 l-13 -30 -13 58
c-12 53 -11 59 6 71 34 25 4 27 -67 6 -44 -14 -70 -27 -67 -34 2 -7 9 -12 15
-12 17 0 22 -9 33 -69 12 -66 5 -96 -22 -96 -22 0 -23 1 -37 95 -15 94 -82
273 -94 251 -13 -23 -30 -9 -18 14 37 69 -34 210 -105 210 -7 0 -23 -12 -34
-26 -17 -22 -23 -24 -36 -14 -8 7 -15 16 -15 20 0 6 79 45 100 49 3 1 42 -16
87 -36z m-59 -38 c51 -43 69 -165 24 -165 -46 0 -92 66 -92 133 0 31 14 57 31
57 4 0 21 -11 37 -25z m-759 -90 c-90 -49 -967 -410 -975 -402 -6 6 380 172
691 299 272 110 346 137 284 103z m-1851 -426 c28 -175 117 -394 216 -533 60
-83 63 -89 42 -84 -45 10 -159 201 -214 359 -35 100 -85 315 -77 329 14 22 21
6 33 -71z m-13 -294 c-5 -2 -36 -11 -67 -20 -64 -17 -128 -66 -128 -96 0 -54
130 -37 198 25 37 33 44 52 26 70 -8 9 -11 16 -5 16 16 0 51 -37 51 -54 0 -30
-48 -82 -99 -108 -94 -48 -191 -31 -191 32 0 42 84 113 155 131 30 7 79 10 60
4z"/>
</g>
</svg>
